<svg xmlns="http://www.w3.org/2000/svg" width="24" height="24" fill="none"><g stroke="#fff" stroke-linecap="round" stroke-linejoin="round" stroke-width="1.603" clip-path="url(#a)"><path d="M3.32 10.489V7.747a.964.964 0 0 1 .496-.842l2.396-1.331M14.893 20.032l-2.425 1.347a.964.964 0 0 1-.936 0L9.11 20.032M20.68 13.511v2.74a.964.964 0 0 1-.495.843l-2.396 1.332M9.11 3.968l2.424-1.347a.964.964 0 0 1 .936 0l2.423 1.347M12 2.5v2.753M12 18.747V21.5M3.46 7.26l2.392 1.318M18.148 15.422l2.392 1.318M20.68 10.489v-2.74a.964.964 0 0 0-.495-.843L17.79 5.574M3.32 13.511v2.74a.964.964 0 0 0 .496.843l2.396 1.332M20.539 7.26l-2.39 1.318M11.546 15.88l-2.715-1.55a.905.905 0 0 1-.456-.787v-3.086a.905.905 0 0 1 .456-.786l2.715-1.552a.905.905 0 0 1 .898 0l2.715 1.552a.905.905 0 0 1 .456.786v3.086a.905.905 0 0 1-.456.786l-2.715 1.552a.905.905 0 0 1-.898 0ZM8.508 10.002 12.004 12M15.496 10.002 12 12M12 12v3.999M5.845 15.422 3.453 16.74"/></g><defs><clipPath id="a"><path fill="#fff" d="M0 0h24v24H0z"/></clipPath></defs></svg>