<!-- Generated by IcoMoon.io -->
<svg version="1.1" xmlns="http://www.w3.org/2000/svg" width="32" height="32" viewBox="0 0 32 32">
<title>business-products-14-1</title>
<path fill="none" stroke-linejoin="round" stroke-linecap="round" stroke-miterlimit="4" stroke-width="1.9377" stroke="#fff" d="M27.465 28c1.473 0 2.667-1.193 2.667-2.667v-18.667c0-1.473-1.193-2.667-2.667-2.667s-2.667 1.193-2.667 2.667v18.667c0 1.473 1.193 2.667 2.667 2.667z"></path>
<path fill="none" stroke-linejoin="round" stroke-linecap="round" stroke-miterlimit="4" stroke-width="1.9377" stroke="#fff" d="M16.802 28c1.473 0 2.667-1.193 2.667-2.667v-11.088c0-1.473-1.193-2.667-2.667-2.667s-2.667 1.193-2.667 2.667v11.088c0 1.473 1.193 2.667 2.667 2.667z"></path>
<path fill="none" stroke-linejoin="round" stroke-linecap="round" stroke-miterlimit="4" stroke-width="1.9377" stroke="#fff" d="M6.133 28c1.473 0 2.667-1.193 2.667-2.667v-3.509c0-1.473-1.193-2.667-2.667-2.667s-2.667 1.193-2.667 2.667v3.509c0 1.473 1.193 2.667 2.667 2.667z"></path>
</svg>
