<!-- Generated by IcoMoon.io -->
<svg version="1.1" xmlns="http://www.w3.org/2000/svg" width="32" height="32" viewBox="0 0 32 32">
<title>d-box-1</title>
<path fill="none" stroke-linejoin="round" stroke-linecap="round" stroke-miterlimit="4" stroke-width="1.9377" stroke="#000" d="M4.431 13.985v-3.655c0-0.229 0.061-0.454 0.178-0.652s0.283-0.36 0.484-0.472l3.195-1.775"></path>
<path fill="none" stroke-linejoin="round" stroke-linecap="round" stroke-miterlimit="4" stroke-width="1.9377" stroke="#000" d="M19.855 26.71l-3.232 1.795c-0.191 0.106-0.406 0.162-0.624 0.162s-0.433-0.056-0.624-0.162l-3.23-1.795"></path>
<path fill="none" stroke-linejoin="round" stroke-linecap="round" stroke-miterlimit="4" stroke-width="1.9377" stroke="#000" d="M27.568 18.015v3.653c0 0.229-0.061 0.454-0.177 0.652s-0.283 0.36-0.483 0.472l-3.195 1.777"></path>
<path fill="none" stroke-linejoin="round" stroke-linecap="round" stroke-miterlimit="4" stroke-width="1.9377" stroke="#000" d="M12.144 5.29l3.232-1.795c0.191-0.106 0.406-0.162 0.624-0.162s0.433 0.056 0.624 0.162l3.23 1.795"></path>
<path fill="none" stroke-linejoin="round" stroke-linecap="round" stroke-miterlimit="4" stroke-width="1.9377" stroke="#000" d="M16 3.334v3.669"></path>
<path fill="none" stroke-linejoin="round" stroke-linecap="round" stroke-miterlimit="4" stroke-width="1.9377" stroke="#000" d="M16 24.996v3.67"></path>
<path fill="none" stroke-linejoin="round" stroke-linecap="round" stroke-miterlimit="4" stroke-width="1.9377" stroke="#000" d="M4.612 9.68l3.188 1.758"></path>
<path fill="none" stroke-linejoin="round" stroke-linecap="round" stroke-miterlimit="4" stroke-width="1.9377" stroke="#000" d="M24.194 20.562l3.189 1.758"></path>
<path fill="none" stroke-linejoin="round" stroke-linecap="round" stroke-miterlimit="4" stroke-width="1.9377" stroke="#000" d="M27.568 13.985v-3.653c0-0.229-0.061-0.454-0.177-0.652s-0.283-0.36-0.483-0.472l-3.195-1.777"></path>
<path fill="none" stroke-linejoin="round" stroke-linecap="round" stroke-miterlimit="4" stroke-width="1.9377" stroke="#000" d="M4.431 18.015v3.653c0 0.229 0.061 0.454 0.177 0.652s0.283 0.36 0.483 0.472l3.195 1.777"></path>
<path fill="none" stroke-linejoin="round" stroke-linecap="round" stroke-miterlimit="4" stroke-width="1.9377" stroke="#000" d="M27.381 9.68l-3.187 1.757"></path>
<path fill="none" stroke-linejoin="round" stroke-linecap="round" stroke-miterlimit="4" stroke-width="1.9377" stroke="#000" d="M15.397 21.174l-3.62-2.069c-0.185-0.106-0.338-0.258-0.445-0.442s-0.163-0.393-0.163-0.606v-4.116c0-0.213 0.056-0.422 0.163-0.606s0.26-0.336 0.445-0.442l3.62-2.069c0.182-0.104 0.389-0.159 0.599-0.159s0.416 0.055 0.599 0.159l3.62 2.069c0.185 0.106 0.338 0.258 0.445 0.442s0.163 0.393 0.163 0.606v4.116c0 0.213-0.056 0.422-0.163 0.606s-0.26 0.336-0.445 0.442l-3.62 2.069c-0.182 0.104-0.389 0.159-0.599 0.159s-0.416-0.055-0.599-0.159z"></path>
<path fill="none" stroke-linejoin="round" stroke-linecap="round" stroke-miterlimit="4" stroke-width="1.9377" stroke="#000" d="M11.338 13.336l4.661 2.664"></path>
<path fill="none" stroke-linejoin="round" stroke-linecap="round" stroke-miterlimit="4" stroke-width="1.9377" stroke="#000" d="M20.661 13.336l-4.661 2.664"></path>
<path fill="none" stroke-linejoin="round" stroke-linecap="round" stroke-miterlimit="4" stroke-width="1.9377" stroke="#000" d="M16 16v5.332"></path>
<path fill="none" stroke-linejoin="round" stroke-linecap="round" stroke-miterlimit="4" stroke-width="1.9377" stroke="#000" d="M7.795 20.562l-3.189 1.758"></path>
</svg>
