<!-- Generated by IcoMoon.io -->
<svg version="1.1" xmlns="http://www.w3.org/2000/svg" width="32" height="32" viewBox="0 0 32 32">
<title>single-user-download-1</title>
<path fill="none" stroke-linejoin="round" stroke-linecap="round" stroke-miterlimit="4" stroke-width="1.9377"  stroke="#fff" d="M16.626 4.030c1.818 1.818 1.818 4.766 0 6.585s-4.766 1.818-6.585 0c-1.818-1.818-1.818-4.766 0-6.585s4.766-1.818 6.585 0z"></path>
<path fill="none" stroke-linejoin="round" stroke-linecap="round" stroke-miterlimit="4" stroke-width="1.9377"  stroke="#fff" d="M19.151 17.061c-1.732-0.692-3.764-1.073-5.817-1.073-5.397 0-10.667 2.623-10.667 6.656v1.333c0 0.736 0.597 1.333 1.333 1.333h12.551"></path>
<path fill="none" stroke-linejoin="round" stroke-linecap="round" stroke-miterlimit="4" stroke-width="1.9377"  stroke="#fff" d="M22.667 29.333c-3.681 0-6.667-2.984-6.667-6.667 0-3.605 3.067-6.671 6.672-6.667 3.68 0.003 6.661 2.987 6.661 6.667 0 3.681-2.984 6.667-6.667 6.667z"></path>
<path fill="none" stroke-linejoin="round" stroke-linecap="round" stroke-miterlimit="4" stroke-width="1.9377"  stroke="#fff" d="M25.023 21.821l-2.357 2.357-2.357-2.357"></path>
</svg>
